<?xml version="1.0" standalone="no"?><!DOCTYPE svg PUBLIC "-//W3C//DTD SVG 1.1//EN" "http://www.w3.org/Graphics/SVG/1.1/DTD/svg11.dtd"><svg t="1551623834056" class="icon" style="" viewBox="0 0 1024 1024" version="1.1" xmlns="http://www.w3.org/2000/svg" p-id="11734" xmlns:xlink="http://www.w3.org/1999/xlink" width="200" height="200"><defs><style type="text/css"></style></defs><path d="M256 726.016l0 41.984 512 0 0-41.984q0-57.984-88.021333-95.018667t-168.021333-36.992-168.021333 36.992-88.021333 95.018667zM640 384q0-52.010667-38.016-89.984t-89.984-38.016-89.984 38.016-38.016 89.984 38.016 89.984 89.984 38.016 89.984-38.016 38.016-89.984zM128 214.016q0-34.005333 25.002667-59.989333t61.013333-25.984l596.010667 0q34.005333 0 59.989333 25.984t25.984 59.989333l0 596.010667q0 34.005333-25.984 59.989333t-59.989333 25.984l-596.010667 0q-36.010667 0-61.013333-25.984t-25.002667-59.989333l0-596.010667z" p-id="11735" fill="#ffffff"></path></svg>