<svg height="512pt" viewBox="-69 0 512 512" width="512pt" xmlns="http://www.w3.org/2000/svg"><path d="m363.199219 53.289062h-36.539063c-4.285156 0-8.199218-2.417968-10.125-6.242187l-14.960937-29.9375c-1.914063-3.820313-5.839844-6.25-10.125-6.25h-208.386719c-4.285156 0-8.210938 2.429687-10.125 6.25l-14.960938 29.9375c-1.925781 3.824219-5.839843 6.242187-10.125 6.242187h-36.539062c-6.253906 0-11.3125 5.070313-11.3125 11.324219v436.066407c0 6.261718 5.058594 11.320312 11.3125 11.320312h351.886719c6.253906 0 11.3125-5.058594 11.3125-11.320312v-436.066407c0-6.253906-5.058594-11.324219-11.3125-11.324219zm-110.886719 27.808594c-3.851562 3.863282-9.191406 6.25-15.082031 6.25h-99.949219c-11.785156 0-21.324219-9.558594-21.324219-21.324218 0-11.117188 9.085938-20.828126 20.457031-21.304688.289063-.007812.578126-.019531.867188-.019531h99.949219c.285156 0 .574219.011719.863281.019531 11.382812.453125 20.460938 9.820312 20.460938 21.304688 0 5.882812-2.390626 11.21875-6.242188 15.074218zm0 0" fill="#82e7a5"/><path d="m238.09375 10.859375v33.859375c-.285156-.007812-.574219-.019531-.863281-.019531h-99.949219c-.289062 0-.578125.011719-.863281.019531v-33.859375zm0 0" fill="#19c88d"/><path d="m56.664062 481.550781c-12.5 0-22.664062-10.167969-22.664062-22.664062v-328.742188c0-12.496093 10.164062-22.664062 22.664062-22.664062h261.183594c12.496094 0 22.664063 10.167969 22.664063 22.664062v328.742188c0 12.496093-10.167969 22.664062-22.664063 22.664062zm0 0" fill="#19c88d"/><path d="m317.847656 469.1875h-261.183594c-5.691406 0-10.300781-4.609375-10.300781-10.300781v-328.742188c0-5.6875 4.609375-10.300781 10.300781-10.300781h261.183594c5.691406 0 10.304688 4.613281 10.304688 10.300781v328.742188c-.003906 5.691406-4.613282 10.300781-10.304688 10.300781zm0 0" fill="#e3f4ff"/><path d="m214.417969 58.050781h-54.324219c-6.25 0-11.316406-5.070312-11.316406-11.320312v-35.414063c0-6.25 5.066406-11.316406 11.316406-11.316406h54.324219c6.25 0 11.316406 5.066406 11.316406 11.316406v35.414063c0 6.25-5.066406 11.320312-11.316406 11.320312zm0 0" fill="#fd6096"/><path d="m265.285156 258.363281c4.105469 4.101563 4.105469 10.757813 0 14.863281l-70.597656 70.597657c-4.101562 4.101562-10.757812 4.101562-14.863281 0l-70.597657-70.597657c-4.105468-4.105468-4.105468-10.761718 0-14.863281 43.09375-43.09375 112.964844-43.09375 156.058594 0zm0 0" fill="#618baa"/><path d="m174.457031 237.628906-6.972656 47.03125c-.3125 2.128906.398437 4.277344 1.917969 5.796875l13.050781 13.054688c2.652344 2.652343 6.953125 2.652343 9.605469 0l13.050781-13.054688c1.523437-1.519531 2.234375-3.671875 1.917969-5.796875l-6.972656-47.03125zm0 0" fill="#fd6096"/><path d="m228.769531 202.460938c0 22.925781-18.585937 41.511718-41.511719 41.511718-22.929687 0-41.515624-18.585937-41.515624-41.511718 0-22.929688 18.585937-41.515626 41.515624-41.515626 22.925782 0 41.511719 18.585938 41.511719 41.515626zm0 0" fill="#edb48a"/><g fill="#adc9e2"><path d="m274.09375 428.230469h-167.570312c-4.265626 0-7.722657-3.457031-7.722657-7.726563 0-4.265625 3.457031-7.726562 7.722657-7.726562h167.570312c4.265625 0 7.726562 3.460937 7.726562 7.726562 0 4.269532-3.460937 7.726563-7.726562 7.726563zm0 0"/><path d="m223.164062 395.9375h-116.640624c-4.265626 0-7.722657-3.457031-7.722657-7.726562 0-4.265626 3.457031-7.726563 7.722657-7.726563h116.640624c4.269532 0 7.726563 3.460937 7.726563 7.726563 0 4.269531-3.457031 7.726562-7.726563 7.726562zm0 0"/><path d="m274.09375 395.9375h-22.257812c-4.265626 0-7.726563-3.457031-7.726563-7.726562 0-4.265626 3.460937-7.726563 7.726563-7.726563h22.257812c4.265625 0 7.726562 3.460937 7.726562 7.726563 0 4.269531-3.460937 7.726562-7.726562 7.726562zm0 0"/></g></svg>